<svg version="1" xmlns="http://www.w3.org/2000/svg" width="378.667" height="378.667" viewBox="0 0 284 284"><path d="M126.5 1c-14.1 2.2-24.6 5.4-36 10.9C50.6 31.4 25.3 71.2 24.9 115c-.1 13.4.7 20.5 3.2 30.5 7.3 28.7 25.1 54 49 69.7 8.5 5.5 19.1 10.6 28.7 13.7 10 3.3 7.4-.5 23.7 33.4 5.4 11.4 10.2 20.3 10.6 19.9.7-.8 8.2-14.9 18.9-35.7l7.2-14 6.1-1.6c31.2-8.2 58.6-30.1 73.4-58.5 14.2-27.2 17.2-55.9 9.2-86.4-1.1-4.1-2.3-8.4-2.8-9.5-8.9-20.2-15.5-30.2-28.1-42.6-4.8-4.7-12-10.7-15.9-13.3-6.5-4.3-21.8-12.5-24.5-13.1-.6-.1-1.8-.5-2.6-.8-2.3-.9-8.9-2.7-16-4.3C157.6.7 134-.1 126.5 1z"/></svg>